<?xml version="1.0" encoding="UTF-8"?>
<svg width="1024" height="1024" viewBox="0 0 1024 1024" xmlns="http://www.w3.org/2000/svg">
  <!-- Background -->
  <rect width="1024" height="1024" fill="#0f172a" rx="200"/>
  
  <!-- Large central square -->
  <rect x="200" y="200" width="624" height="624" fill="#ffffff" rx="60"/>
  
  <!-- 3x3 grid of colored squares -->
  <rect x="240" y="240" width="181" height="181" fill="#3b82f6" rx="20"/>
  <rect x="421" y="240" width="182" height="181" fill="#10b981" rx="20"/>
  <rect x="603" y="240" width="181" height="181" fill="#f59e0b" rx="20"/>
  
  <rect x="240" y="421" width="181" height="182" fill="#8b5cf6" rx="20"/>
  <rect x="421" y="421" width="182" height="182" fill="#dc2626" rx="20"/>
  <rect x="603" y="421" width="181" height="182" fill="#06b6d4" rx="20"/>
  
  <rect x="240" y="603" width="181" height="181" fill="#f97316" rx="20"/>
  <rect x="421" y="603" width="182" height="181" fill="#84cc16" rx="20"/>
  <rect x="603" y="603" width="181" height="181" fill="#ec4899" rx="20"/>
  
  <!-- Center winner indicator -->
  <circle cx="512" cy="512" r="60" fill="#000000" opacity="0.8"/>
  <text x="512" y="525" font-family="Arial, sans-serif" font-size="20" font-weight="900" fill="#ffffff" text-anchor="middle">WIN</text>
  
  <!-- Dollar signs in corners of main square -->
  <text x="260" y="140" font-family="Arial, sans-serif" font-size="48" font-weight="900" fill="#10b981" text-anchor="middle">$</text>
  <text x="764" y="140" font-family="Arial, sans-serif" font-size="48" font-weight="900" fill="#10b981" text-anchor="middle">$</text>
  <text x="260" y="920" font-family="Arial, sans-serif" font-size="48" font-weight="900" fill="#10b981" text-anchor="middle">$</text>
  <text x="764" y="920" font-family="Arial, sans-serif" font-size="48" font-weight="900" fill="#10b981" text-anchor="middle">$</text>
  
  <!-- Top text -->
  <text x="512" y="100" font-family="Arial, sans-serif" font-size="52" font-weight="900" fill="#ffffff" text-anchor="middle">SQUARES</text>
  
  <!-- Bottom text -->
  <text x="512" y="980" font-family="Arial, sans-serif" font-size="42" font-weight="700" fill="#fbbf24" text-anchor="middle">2026</text>
</svg>